<svg width="70" height="50" viewBox="0 0 70 50" fill="none" xmlns="http://www.w3.org/2000/svg">
<path d="M6.5625 0C4.82202 0 3.15282 0.790177 1.92211 2.1967C0.691404 3.60322 0 5.51088 0 7.5L0 15C0 15.663 0.230468 16.2989 0.640704 16.7678C1.05094 17.2366 1.60734 17.5 2.1875 17.5C3.92798 17.5 5.59718 18.2902 6.82789 19.6967C8.0586 21.1032 8.75 23.0109 8.75 25C8.75 26.9891 8.0586 28.8968 6.82789 30.3033C5.59718 31.7098 3.92798 32.5 2.1875 32.5C1.60734 32.5 1.05094 32.7634 0.640704 33.2322C0.230468 33.7011 0 34.337 0 35L0 42.5C0 44.4891 0.691404 46.3968 1.92211 47.8033C3.15282 49.2098 4.82202 50 6.5625 50H63.4375C65.178 50 66.8472 49.2098 68.0779 47.8033C69.3086 46.3968 70 44.4891 70 42.5V35C70 34.337 69.7695 33.7011 69.3593 33.2322C68.9491 32.7634 68.3927 32.5 67.8125 32.5C66.072 32.5 64.4028 31.7098 63.1721 30.3033C61.9414 28.8968 61.25 26.9891 61.25 25C61.25 23.0109 61.9414 21.1032 63.1721 19.6967C64.4028 18.2902 66.072 17.5 67.8125 17.5C68.3927 17.5 68.9491 17.2366 69.3593 16.7678C69.7695 16.2989 70 15.663 70 15V7.5C70 5.51088 69.3086 3.60322 68.0779 2.1967C66.8472 0.790177 65.178 0 63.4375 0H6.5625Z" fill="white"/>
<g style="mix-blend-mode:lighten">
<rect y="13.3359" width="70" height="26.6667" fill="url(#paint0_linear_224_2921)"/>
</g>
<path d="M24.5561 40.0155L20.4121 16.6875H26.6841L28.1121 27.2155L28.7841 32.9435H29.0361L34.6361 24.1354L40.3481 33.0075H40.5721L41.1601 27.3115L42.5041 16.6875H48.7761L44.6321 40.0155H40.7681H36.9041L34.6361 25.6155L32.2841 40.0155H28.4201H24.5561Z" fill="#6200EE"/>
<path d="M31.8702 30.0156V15.5836H26.2422V10.0156H43.3502V15.5836H37.5542V30.0156L34.9922 25.0156L31.8702 30.0156Z" fill="#6200EE"/>
<defs>
<linearGradient id="paint0_linear_224_2921" x1="35" y1="13.3359" x2="35" y2="40.0026" gradientUnits="userSpaceOnUse">
<stop offset="0.515525" stop-color="#323232" stop-opacity="0.22517"/>
<stop offset="0.515625" stop-color="#323232" stop-opacity="0.880208"/>
<stop offset="1" stop-color="#323232" stop-opacity="0"/>
</linearGradient>
</defs>
</svg>
